{
  "asset": {
    "generator": "Khronos glTF Blender I/O v1.3.48",
    "version": "2.0"
  },
  "extensionsUsed": [
    "KHR_lights_punctual",
    "KHR_texture_transform"
  ],
  "extensionsRequired": [
    "KHR_lights_punctual",
    "KHR_texture_transform"
  ],
  "extensions": {
    "KHR_lights_punctual": {
      "lights": [
        {
          "color": [
            1,
            1,
            1
          ],
          "intensity": 5000,
          "type": "point",
          "name": "Light"
        }
      ]
    }
  },
  "scene": 0,
  "scenes": [
    {
      "name": "Scene",
      "nodes": [
        1,
        2,
        3,
        20
      ]
    }
  ],
  "nodes": [
    {
      "extensions": {
        "KHR_lights_punctual": {
          "light": 0
        }
      },
      "name": "Light_Orientation",
      "rotation": [
        -0.7071067690849304,
        0,
        0,
        0.7071067690849304
      ]
    },
    {
      "children": [
        0
      ],
      "name": "Light",
      "rotation": [
        0.16907575726509094,
        0.7558803558349609,
        -0.27217137813568115,
        0.570947527885437
      ],
      "translation": [
        4.956160545349121,
        16.200580596923828,
        -0.7730941772460938
      ]
    },
    {
      "name": "Camera",
      "rotation": [
        0.483536034822464,
        0.33687159419059753,
        -0.20870360732078552,
        0.7804827094078064
      ],
      "translation": [
        7.358891487121582,
        4.958309173583984,
        6.925790786743164
      ]
    },
    {
      "name": "CINEMA_4D_Editor",
      "rotation": [
        0.31347596645355225,
        -0.5299155116081238,
        0.7567977905273438,
        0.21949832141399384
      ],
      "scale": [
        0.0010000000474974513,
        0.0010000000474974513,
        0.0010000000474974513
      ],
      "translation": [
        0.6000001430511475,
        0.30000001192092896,
        0.6000000238418579
      ]
    },
    {
      "mesh": 0,
      "name": "Shell"
    },
    {
      "children": [
        4
      ],
      "name": "black_basement"
    },
    {
      "mesh": 1,
      "name": "Solid_Addition_line_2"
    },
    {
      "children": [
        6
      ],
      "name": "concret_base"
    },
    {
      "mesh": 2,
      "name": "Solid_Subtraction"
    },
    {
      "children": [
        8
      ],
      "name": "concret_ciling"
    },
    {
      "mesh": 3,
      "name": "Solid_Addition"
    },
    {
      "children": [
        10
      ],
      "name": "concret_sturcture"
    },
    {
      "mesh": 4,
      "name": "Solid_Addition_line"
    },
    {
      "children": [
        12
      ],
      "name": "concret_watchplatform"
    },
    {
      "name": "Glass_Clear_Green_RT"
    },
    {
      "mesh": 5,
      "name": "Extrude_2"
    },
    {
      "children": [
        15
      ],
      "name": "scan_light"
    },
    {
      "mesh": 6,
      "name": "Solid_Addition_2"
    },
    {
      "children": [
        17
      ],
      "name": "Sky_1"
    },
    {
      "children": [
        5,
        7,
        9,
        11,
        13,
        14,
        16,
        18
      ],
      "name": "Geometry"
    },
    {
      "children": [
        19
      ],
      "name": "Vectorworks_Scene_0126",
      "rotation": [
        0.7071068286895752,
        0,
        0,
        0.7071067094802856
      ],
      "scale": [
        0.0010000000474974513,
        0.0010000000474974513,
        0.0010000000474974513
      ],
      "translation": [
        81.53889465332031,
        -0.009090594947338104,
        75.80355834960938
      ]
    }
  ],
  "materials": [
    {
      "doubleSided": true,
      "emissiveFactor": [
        0,
        0,
        0
      ],
      "name": "black basement",
      "pbrMetallicRoughness": {
        "baseColorTexture": {
          "extensions": {
            "KHR_texture_transform": {
              "offset": [
                0,
                -1
              ]
            }
          },
          "index": 0,
          "texCoord": 0
        },
        "metallicFactor": 0,
        "roughnessFactor": 0.5527864098548889
      }
    },
    {
      "doubleSided": true,
      "name": "concret-base",
      "pbrMetallicRoughness": {}
    },
    {
      "doubleSided": true,
      "name": "concret-ciling",
      "pbrMetallicRoughness": {}
    },
    {
      "doubleSided": true,
      "name": "concret sturcture",
      "pbrMetallicRoughness": {}
    },
    {
      "doubleSided": true,
      "name": "concret watchplatform",
      "pbrMetallicRoughness": {}
    },
    {
      "doubleSided": true,
      "emissiveFactor": [
        0,
        0,
        0
      ],
      "name": "scan light",
      "pbrMetallicRoughness": {
        "baseColorFactor": [
          1,
          1,
          1,
          1
        ],
        "metallicFactor": 0,
        "roughnessFactor": 0.5527864098548889
      }
    },
    {
      "doubleSided": true,
      "emissiveFactor": [
        0,
        0,
        0
      ],
      "name": "Sky 1",
      "pbrMetallicRoughness": {
        "baseColorTexture": {
          "extensions": {
            "KHR_texture_transform": {
              "offset": [
                0,
                -1
              ]
            }
          },
          "index": 1,
          "texCoord": 0
        },
        "metallicFactor": 0,
        "roughnessFactor": 0.5527864098548889
      }
    }
  ],
  "meshes": [
    {
      "name": "Mesh.001",
      "primitives": [
        {
          "attributes": {
            "POSITION": 0,
            "NORMAL": 1,
            "TEXCOORD_0": 2
          },
          "indices": 3,
          "material": 0
        }
      ]
    },
    {
      "name": "Mesh.002",
      "primitives": [
        {
          "attributes": {
            "POSITION": 4,
            "NORMAL": 5,
            "TEXCOORD_0": 6
          },
          "indices": 7,
          "material": 1
        }
      ]
    },
    {
      "name": "Mesh.005",
      "primitives": [
        {
          "attributes": {
            "POSITION": 8,
            "NORMAL": 9,
            "TEXCOORD_0": 10
          },
          "indices": 11,
          "material": 2
        }
      ]
    },
    {
      "name": "Mesh.003",
      "primitives": [
        {
          "attributes": {
            "POSITION": 12,
            "NORMAL": 13,
            "TEXCOORD_0": 14
          },
          "indices": 15,
          "material": 3
        }
      ]
    },
    {
      "name": "Mesh",
      "primitives": [
        {
          "attributes": {
            "POSITION": 16,
            "NORMAL": 17,
            "TEXCOORD_0": 18
          },
          "indices": 19,
          "material": 4
        }
      ]
    },
    {
      "name": "Mesh.006",
      "primitives": [
        {
          "attributes": {
            "POSITION": 20,
            "NORMAL": 21,
            "TEXCOORD_0": 22
          },
          "indices": 23,
          "material": 5
        }
      ]
    },
    {
      "name": "Mesh.007",
      "primitives": [
        {
          "attributes": {
            "POSITION": 24,
            "NORMAL": 25,
            "TEXCOORD_0": 26
          },
          "indices": 27,
          "material": 6
        }
      ]
    }
  ],
  "textures": [
    {
      "source": 0
    },
    {
      "source": 1
    }
  ],
  "images": [
    {
      "name": "black basement Color",
      "uri": "classroom0126_img0.png"
    },
    {
      "name": "Sky 1 Color",
      "uri": "classroom0126_img1.jpg"
    }
  ],
  "accessors": [
    {
      "bufferView": 0,
      "componentType": 5126,
      "count": 582,
      "max": [
        -76302.1015625,
        -68377.21875,
        -9.094947017729282e-13
      ],
      "min": [
        -90118.890625,
        -82194.015625,
        -4926.42333984375
      ],
      "type": "VEC3"
    },
    {
      "bufferView": 1,
      "componentType": 5126,
      "count": 582,
      "type": "VEC3"
    },
    {
      "bufferView": 2,
      "componentType": 5126,
      "count": 582,
      "type": "VEC2"
    },
    {
      "bufferView": 3,
      "componentType": 5123,
      "count": 1728,
      "type": "SCALAR"
    },
    {
      "bufferView": 4,
      "componentType": 5126,
      "count": 5568,
      "max": [
        -61887.078125,
        -53989.55859375,
        -4928.94970703125
      ],
      "min": [
        -104533.7265625,
        -96601.5234375,
        -8586.5498046875
      ],
      "type": "VEC3"
    },
    {
      "bufferView": 5,
      "componentType": 5126,
      "count": 5568,
      "type": "VEC3"
    },
    {
      "bufferView": 6,
      "componentType": 5126,
      "count": 5568,
      "type": "VEC2"
    },
    {
      "bufferView": 7,
      "componentType": 5123,
      "count": 14091,
      "type": "SCALAR"
    },
    {
      "bufferView": 8,
      "componentType": 5126,
      "count": 61094,
      "max": [
        -58177.76171875,
        -48870.8125,
        -4926.42333984375
      ],
      "min": [
        -108243.0390625,
        -97078.796875,
        -27879.01171875
      ],
      "type": "VEC3"
    },
    {
      "bufferView": 9,
      "componentType": 5126,
      "count": 61094,
      "type": "VEC3"
    },
    {
      "bufferView": 10,
      "componentType": 5126,
      "count": 61094,
      "type": "VEC2"
    },
    {
      "bufferView": 11,
      "componentType": 5123,
      "count": 131634,
      "type": "SCALAR"
    },
    {
      "bufferView": 12,
      "componentType": 5126,
      "count": 1250,
      "max": [
        -58573.7109375,
        -53949.6015625,
        -4926.42333984375
      ],
      "min": [
        -107847.09375,
        -96621.6015625,
        -27481.552734375
      ],
      "type": "VEC3"
    },
    {
      "bufferView": 13,
      "componentType": 5126,
      "count": 1250,
      "type": "VEC3"
    },
    {
      "bufferView": 14,
      "componentType": 5126,
      "count": 1250,
      "type": "VEC2"
    },
    {
      "bufferView": 15,
      "componentType": 5123,
      "count": 2736,
      "type": "SCALAR"
    },
    {
      "bufferView": 16,
      "componentType": 5126,
      "count": 901,
      "max": [
        -55346.16796875,
        -47421.80078125,
        105.25804901123047
      ],
      "min": [
        -111073.796875,
        -103149.4296875,
        -5536.0234375
      ],
      "type": "VEC3"
    },
    {
      "bufferView": 17,
      "componentType": 5126,
      "count": 901,
      "type": "VEC3"
    },
    {
      "bufferView": 18,
      "componentType": 5126,
      "count": 901,
      "type": "VEC2"
    },
    {
      "bufferView": 19,
      "componentType": 5123,
      "count": 2646,
      "type": "SCALAR"
    },
    {
      "bufferView": 20,
      "componentType": 5126,
      "count": 79,
      "max": [
        -82159.203125,
        -51194.91015625,
        -4926.42333984375
      ],
      "min": [
        -84261.59375,
        -52718.91015625,
        -9605.5615234375
      ],
      "type": "VEC3"
    },
    {
      "bufferView": 21,
      "componentType": 5126,
      "count": 79,
      "type": "VEC3"
    },
    {
      "bufferView": 22,
      "componentType": 5126,
      "count": 79,
      "type": "VEC2"
    },
    {
      "bufferView": 23,
      "componentType": 5123,
      "count": 120,
      "type": "SCALAR"
    },
    {
      "bufferView": 24,
      "componentType": 5126,
      "count": 1164,
      "max": [
        -58972.734375,
        -53469.66015625,
        -5155.0234375
      ],
      "min": [
        -107448.0703125,
        -97101.5390625,
        -27835.646484375
      ],
      "type": "VEC3"
    },
    {
      "bufferView": 25,
      "componentType": 5126,
      "count": 1164,
      "type": "VEC3"
    },
    {
      "bufferView": 26,
      "componentType": 5126,
      "count": 1164,
      "type": "VEC2"
    },
    {
      "bufferView": 27,
      "componentType": 5123,
      "count": 2136,
      "type": "SCALAR"
    }
  ],
  "bufferViews": [
    {
      "buffer": 0,
      "byteLength": 6984,
      "byteOffset": 0
    },
    {
      "buffer": 0,
      "byteLength": 6984,
      "byteOffset": 6984
    },
    {
      "buffer": 0,
      "byteLength": 4656,
      "byteOffset": 13968
    },
    {
      "buffer": 0,
      "byteLength": 3456,
      "byteOffset": 18624
    },
    {
      "buffer": 0,
      "byteLength": 66816,
      "byteOffset": 22080
    },
    {
      "buffer": 0,
      "byteLength": 66816,
      "byteOffset": 88896
    },
    {
      "buffer": 0,
      "byteLength": 44544,
      "byteOffset": 155712
    },
    {
      "buffer": 0,
      "byteLength": 28184,
      "byteOffset": 200256
    },
    {
      "buffer": 0,
      "byteLength": 733128,
      "byteOffset": 228440
    },
    {
      "buffer": 0,
      "byteLength": 733128,
      "byteOffset": 961568
    },
    {
      "buffer": 0,
      "byteLength": 488752,
      "byteOffset": 1694696
    },
    {
      "buffer": 0,
      "byteLength": 263268,
      "byteOffset": 2183448
    },
    {
      "buffer": 0,
      "byteLength": 15000,
      "byteOffset": 2446716
    },
    {
      "buffer": 0,
      "byteLength": 15000,
      "byteOffset": 2461716
    },
    {
      "buffer": 0,
      "byteLength": 10000,
      "byteOffset": 2476716
    },
    {
      "buffer": 0,
      "byteLength": 5472,
      "byteOffset": 2486716
    },
    {
      "buffer": 0,
      "byteLength": 10812,
      "byteOffset": 2492188
    },
    {
      "buffer": 0,
      "byteLength": 10812,
      "byteOffset": 2503000
    },
    {
      "buffer": 0,
      "byteLength": 7208,
      "byteOffset": 2513812
    },
    {
      "buffer": 0,
      "byteLength": 5292,
      "byteOffset": 2521020
    },
    {
      "buffer": 0,
      "byteLength": 948,
      "byteOffset": 2526312
    },
    {
      "buffer": 0,
      "byteLength": 948,
      "byteOffset": 2527260
    },
    {
      "buffer": 0,
      "byteLength": 632,
      "byteOffset": 2528208
    },
    {
      "buffer": 0,
      "byteLength": 240,
      "byteOffset": 2528840
    },
    {
      "buffer": 0,
      "byteLength": 13968,
      "byteOffset": 2529080
    },
    {
      "buffer": 0,
      "byteLength": 13968,
      "byteOffset": 2543048
    },
    {
      "buffer": 0,
      "byteLength": 9312,
      "byteOffset": 2557016
    },
    {
      "buffer": 0,
      "byteLength": 4272,
      "byteOffset": 2566328
    }
  ],
  "buffers": [
    {
      "uri": "classroom0126_data.bin",
      "byteLength": 2570600
    }
  ]
}