{
	"asset":{
		"generator":"Khronos glTF Blender I/O v4.2.70",
		"version":"2.0"
	},
	"scene":0,
	"scenes":[
		{
			"name":"Scene",
			"nodes":[
				0
			]
		}
	],
	"nodes":[
		{
			"mesh":0,
			"name":"Mesh_0"
		}
	],
	 "materials": [
    {
      "name": "Material_0",
      "normalTexture": {
        "index": 0
      },
      "occlusionTexture": {
        "index": 1
      },
      "pbrMetallicRoughness": {
        "baseColorTexture": {
          "index": 2
        },
        "metallicFactor": 0,
        "metallicRoughnessTexture": {
          "index": 1
        },
        "baseColorFactor": [1, 1, 1, 0.5],
        "alphaMode": "BLEND"
      }
    }
  ],
	"meshes":[
		{
			"name":"Mesh_0",
			"primitives":[
				{
					"attributes":{
						"POSITION":0,
						"NORMAL":1,
						"TEXCOORD_0":2
					},
					"indices":3,
					"material":0
				}
			]
		}
	],
	"textures":[
		{
			"sampler":0,
			"source":0
		},
		{
			"sampler":0,
			"source":1
		},
		{
			"sampler":0,
			"source":2
		}
	],
	"images":[
		{
			"mimeType":"image/jpeg",
			"name":"Image_0",
			"uri":"Image_0.jpg"
		},
		{
			"mimeType":"image/png",
			"name":"Image_1-Image_3",
			"uri":"Image_1-Image_3.png"
		},
		{
			"mimeType":"image/jpeg",
			"name":"Image_2",
			"uri":"Image_2.jpg"
		}
	],
	"accessors":[
		{
			"bufferView":0,
			"componentType":5126,
			"count":749758,
			"max":[
				2.1167337894439697,
				1.4980628490447998,
				1.582602620124817
			],
			"min":[
				-2.0099093914031982,
				-4.430919631204233e-08,
				-1.606340765953064
			],
			"type":"VEC3"
		},
		{
			"bufferView":1,
			"componentType":5126,
			"count":749758,
			"type":"VEC3"
		},
		{
			"bufferView":2,
			"componentType":5126,
			"count":749758,
			"type":"VEC2"
		},
		{
			"bufferView":3,
			"componentType":5125,
			"count":750000,
			"type":"SCALAR"
		}
	],
	"bufferViews":[
		{
			"buffer":0,
			"byteLength":8997096,
			"byteOffset":0,
			"target":34962
		},
		{
			"buffer":0,
			"byteLength":8997096,
			"byteOffset":8997096,
			"target":34962
		},
		{
			"buffer":0,
			"byteLength":5998064,
			"byteOffset":17994192,
			"target":34962
		},
		{
			"buffer":0,
			"byteLength":3000000,
			"byteOffset":23992256,
			"target":34963
		}
	],
	"samplers":[
		{
			"magFilter":9729,
			"minFilter":9987
		}
	],
	"buffers":[
		{
			"byteLength":26992256,
			"uri":"attic1986_ver2.bin"
		}
	]
}
