{
    "asset" : {
        "generator" : "Khronos glTF Blender I/O v1.5.17",
        "version" : "2.0"
    },
    "scene" : 0,
    "scenes" : [
        {
            "name" : "Scene",
            "nodes" : [
                0
            ]
        }
    ],
    "nodes" : [
        {
            "mesh" : 0,
            "name" : "Coffee Table",
            "scale" : [
                0.8234405517578125,
                1.7323466539382935,
                0.8234405517578125
            ]
        }
    ],
    "materials" : [
        {
            "doubleSided" : true,
            "name" : "Coffee Table",
            "normalTexture" : {
                "index" : 0,
                "scale" : 0.10000000149011612
            },
            "pbrMetallicRoughness" : {
                "baseColorTexture" : {
                    "index" : 1
                },
                "metallicFactor" : 0,
                "roughnessFactor" : 0.5809524059295654
            }
        }
    ],
    "meshes" : [
        {
            "name" : "Coffee Table",
            "primitives" : [
                {
                    "attributes" : {
                        "POSITION" : 0,
                        "NORMAL" : 1,
                        "TEXCOORD_0" : 2
                    },
                    "indices" : 3,
                    "material" : 0
                }
            ]
        }
    ],
    "textures" : [
        {
            "sampler" : 0,
            "source" : 0
        },
        {
            "sampler" : 0,
            "source" : 1
        }
    ],
    "images" : [
        {
            "bufferView" : 4,
            "mimeType" : "image/png",
            "name" : "Coffee Table COL_NRM"
        },
        {
            "bufferView" : 5,
            "mimeType" : "image/png",
            "name" : "Coffee Table COL"
        }
    ],
    "accessors" : [
        {
            "bufferView" : 0,
            "componentType" : 5126,
            "count" : 656,
            "max" : [
                1.1224199533462524,
                0.4063994586467743,
                1.1224199533462524
            ],
            "min" : [
                -1.1224199533462524,
                0,
                -1.1224199533462524
            ],
            "type" : "VEC3"
        },
        {
            "bufferView" : 1,
            "componentType" : 5126,
            "count" : 656,
            "type" : "VEC3"
        },
        {
            "bufferView" : 2,
            "componentType" : 5126,
            "count" : 656,
            "type" : "VEC2"
        },
        {
            "bufferView" : 3,
            "componentType" : 5123,
            "count" : 1056,
            "type" : "SCALAR"
        }
    ],
    "bufferViews" : [
        {
            "buffer" : 0,
            "byteLength" : 7872,
            "byteOffset" : 0
        },
        {
            "buffer" : 0,
            "byteLength" : 7872,
            "byteOffset" : 7872
        },
        {
            "buffer" : 0,
            "byteLength" : 5248,
            "byteOffset" : 15744
        },
        {
            "buffer" : 0,
            "byteLength" : 2112,
            "byteOffset" : 20992
        },
        {
            "buffer" : 0,
            "byteLength" : 357129,
            "byteOffset" : 23104
        },
        {
            "buffer" : 0,
            "byteLength" : 327124,
            "byteOffset" : 380236
        }
    ],
    "samplers" : [
        {
            "magFilter" : 9729,
            "minFilter" : 9987
        }
    ],
    "buffers" : [
        {
            "byteLength" : 707360,
            "uri" : "data:application/octet-stream;base64,"
        }
    ]
}
