{"asset":{"version":"2.0","generator":"babylon.js glTF exporter for 3dsmax 2021 v20210212.2"},"scene":0,"scenes":[{"nodes":[0]}],"nodes":[{"mesh":0,"name":"Cylinder002"}],"meshes":[{"primitives":[{"attributes":{"POSITION":1,"NORMAL":2,"TEXCOORD_0":3},"indices":0,"material":0},{"attributes":{"POSITION":5,"NORMAL":6,"TEXCOORD_0":7},"indices":4,"material":1},{"attributes":{"POSITION":9,"NORMAL":10,"TEXCOORD_0":11},"indices":8,"material":2},{"attributes":{"POSITION":13,"NORMAL":14,"TEXCOORD_0":15},"indices":12,"material":3},{"attributes":{"POSITION":17,"NORMAL":18,"TEXCOORD_0":19},"indices":16,"material":4},{"attributes":{"POSITION":21,"NORMAL":22,"TEXCOORD_0":23},"indices":20,"material":5},{"attributes":{"POSITION":25,"NORMAL":26,"TEXCOORD_0":27},"indices":24,"material":6},{"attributes":{"POSITION":29,"NORMAL":30,"TEXCOORD_0":31},"indices":28,"material":7},{"attributes":{"POSITION":33,"NORMAL":34,"TEXCOORD_0":35},"indices":32,"material":8}],"name":"Cylinder002"}],"accessors":[{"bufferView":0,"componentType":5123,"count":5790,"type":"SCALAR","name":"accessorIndices"},{"bufferView":1,"componentType":5126,"count":5790,"max":[6.158193,5.651453,6.158193],"min":[-6.158193,-1.93828654,-6.158193],"type":"VEC3","name":"accessorPositions"},{"bufferView":1,"byteOffset":69480,"componentType":5126,"count":5790,"type":"VEC3","name":"accessorNormals"},{"bufferView":2,"componentType":5126,"count":5790,"type":"VEC2","name":"accessorUVs"},{"bufferView":0,"byteOffset":11580,"componentType":5123,"count":624,"type":"SCALAR","name":"accessorIndices"},{"bufferView":1,"byteOffset":138960,"componentType":5126,"count":624,"max":[6.158193,0.0,6.158193],"min":[-6.158193,-0.9080492,-6.158193],"type":"VEC3","name":"accessorPositions"},{"bufferView":1,"byteOffset":146448,"componentType":5126,"count":624,"type":"VEC3","name":"accessorNormals"},{"bufferView":2,"byteOffset":46320,"componentType":5126,"count":624,"type":"VEC2","name":"accessorUVs"},{"bufferView":0,"byteOffset":12828,"componentType":5123,"count":2628,"type":"SCALAR","name":"accessorIndices"},{"bufferView":1,"byteOffset":153936,"componentType":5126,"count":2628,"max":[3.809724,1.04570472,3.80165815],"min":[-3.68000937,-0.00197512168,-3.80140972],"type":"VEC3","name":"accessorPositions"},{"bufferView":1,"byteOffset":185472,"componentType":5126,"count":2628,"type":"VEC3","name":"accessorNormals"},{"bufferView":2,"byteOffset":51312,"componentType":5126,"count":2628,"type":"VEC2","name":"accessorUVs"},{"bufferView":0,"byteOffset":18084,"componentType":5123,"count":54,"type":"SCALAR","name":"accessorIndices"},{"bufferView":1,"byteOffset":217008,"componentType":5126,"count":54,"max":[1.06559682,4.749353,1.0494082],"min":[-1.06559682,4.74935246,-1.04940808],"type":"VEC3","name":"accessorPositions"},{"bufferView":1,"byteOffset":217656,"componentType":5126,"count":54,"type":"VEC3","name":"accessorNormals"},{"bufferView":2,"byteOffset":72336,"componentType":5126,"count":54,"type":"VEC2","name":"accessorUVs"},{"bufferView":0,"byteOffset":18192,"componentType":5123,"count":6,"type":"SCALAR","name":"accessorIndices"},{"bufferView":1,"byteOffset":218304,"componentType":5126,"count":6,"max":[11.5105085,20.5617886,11.4226646],"min":[-11.4226646,20.5617886,-11.5348186],"type":"VEC3","name":"accessorPositions"},{"bufferView":1,"byteOffset":218376,"componentType":5126,"count":6,"type":"VEC3","name":"accessorNormals"},{"bufferView":2,"byteOffset":72768,"componentType":5126,"count":6,"type":"VEC2","name":"accessorUVs"},{"bufferView":0,"byteOffset":18204,"componentType":5123,"count":6,"type":"SCALAR","name":"accessorIndices"},{"bufferView":1,"byteOffset":218448,"componentType":5126,"count":6,"max":[-11.3348207,20.5617886,11.4226646],"min":[-11.4226646,-2.283546,-11.5348186],"type":"VEC3","name":"accessorPositions"},{"bufferView":1,"byteOffset":218520,"componentType":5126,"count":6,"type":"VEC3","name":"accessorNormals"},{"bufferView":2,"byteOffset":72816,"componentType":5126,"count":6,"type":"VEC2","name":"accessorUVs"},{"bufferView":0,"byteOffset":18216,"componentType":5123,"count":6,"type":"SCALAR","name":"accessorIndices"},{"bufferView":1,"byteOffset":218592,"componentType":5126,"count":6,"max":[11.5105085,20.5617886,11.4226646],"min":[11.4226646,-2.283546,-11.5348186],"type":"VEC3","name":"accessorPositions"},{"bufferView":1,"byteOffset":218664,"componentType":5126,"count":6,"type":"VEC3","name":"accessorNormals"},{"bufferView":2,"byteOffset":72864,"componentType":5126,"count":6,"type":"VEC2","name":"accessorUVs"},{"bufferView":0,"byteOffset":18228,"componentType":5123,"count":6,"type":"SCALAR","name":"accessorIndices"},{"bufferView":1,"byteOffset":218736,"componentType":5126,"count":6,"max":[11.4226646,20.5617886,11.4226646],"min":[-11.4226646,-2.283546,11.4226646],"type":"VEC3","name":"accessorPositions"},{"bufferView":1,"byteOffset":218808,"componentType":5126,"count":6,"type":"VEC3","name":"accessorNormals"},{"bufferView":2,"byteOffset":72912,"componentType":5126,"count":6,"type":"VEC2","name":"accessorUVs"},{"bufferView":0,"byteOffset":18240,"componentType":5123,"count":6,"type":"SCALAR","name":"accessorIndices"},{"bufferView":1,"byteOffset":218880,"componentType":5126,"count":6,"max":[11.5105085,20.5617886,-11.5348186],"min":[-11.3348207,-2.283546,-11.5348186],"type":"VEC3","name":"accessorPositions"},{"bufferView":1,"byteOffset":218952,"componentType":5126,"count":6,"type":"VEC3","name":"accessorNormals"},{"bufferView":2,"byteOffset":72960,"componentType":5126,"count":6,"type":"VEC2","name":"accessorUVs"}],"bufferViews":[{"buffer":0,"byteLength":18252,"name":"bufferViewScalar"},{"buffer":0,"byteOffset":18252,"byteLength":219024,"byteStride":12,"name":"bufferViewFloatVec3"},{"buffer":0,"byteOffset":237276,"byteLength":73008,"byteStride":8,"name":"bufferViewFloatVec2"}],"buffers":[{"uri":"Futuristic_Lab_Mockup.bin","byteLength":310284}],"materials":[{"pbrMetallicRoughness":{"baseColorFactor":[0.9254902,0.9254902,0.9254902,1.0],"metallicFactor":0.0,"roughnessFactor":0.450053632},"emissiveFactor":[0.4627451,0.4627451,0.4627451],"name":"Base"},{"pbrMetallicRoughness":{"baseColorFactor":[0.8235294,0.8235294,0.8235294,1.0],"metallicFactor":0.0,"roughnessFactor":0.450053632},"emissiveFactor":[0.4117647,0.4117647,0.4117647],"name":"DomeMain"},{"pbrMetallicRoughness":{"baseColorFactor":[0.6901961,0.6901961,0.6901961,1.0],"metallicFactor":0.0,"roughnessFactor":0.450053632},"emissiveFactor":[0.345098048,0.345098048,0.345098048],"name":"03 - Default"},{"pbrMetallicRoughness":{"metallicFactor":0.0,"roughnessFactor":0.450053632},"emissiveFactor":[1.0,1.0,1.0],"name":"07 - Default"},{"pbrMetallicRoughness":{"baseColorTexture":{"index":0},"metallicFactor":0.0,"roughnessFactor":0.7022211},"emissiveTexture":{"index":0},"emissiveFactor":[1.0,1.0,1.0],"name":"Material #95"},{"pbrMetallicRoughness":{"baseColorTexture":{"index":1},"metallicFactor":0.0,"roughnessFactor":0.7022211},"emissiveTexture":{"index":1},"emissiveFactor":[1.0,1.0,1.0],"name":"14 - Default"},{"pbrMetallicRoughness":{"baseColorTexture":{"index":2},"metallicFactor":0.0,"roughnessFactor":0.7022211},"emissiveTexture":{"index":2},"emissiveFactor":[1.0,1.0,1.0],"name":"09 - Default"},{"pbrMetallicRoughness":{"baseColorTexture":{"index":3},"metallicFactor":0.0,"roughnessFactor":0.7022211},"emissiveTexture":{"index":3},"emissiveFactor":[1.0,1.0,1.0],"name":"13 - Default"},{"pbrMetallicRoughness":{"baseColorTexture":{"index":4},"metallicFactor":0.0,"roughnessFactor":0.7022211},"emissiveTexture":{"index":4},"emissiveFactor":[1.0,1.0,1.0],"name":"15 - Default"}],"textures":[{"sampler":0,"source":0,"name":"Skybox01-05.jpg"},{"sampler":0,"source":1,"name":"Skybox01-03.jpg"},{"sampler":0,"source":2,"name":"Skybox01-01.jpg"},{"sampler":0,"source":3,"name":"Skybox01-02.jpg"},{"sampler":0,"source":4,"name":"Skybox01-04.jpg"}],"images":[{"uri":"./Skybox01-05.jpg"},{"uri":"./Skybox01-03.jpg"},{"uri":"./Skybox01-01.jpg"},{"uri":"./Skybox01-02.jpg"},{"uri":"./Skybox01-04.jpg"}],"samplers":[{"magFilter":9729,"minFilter":9987}]}